HIERARCHY
ROOT Hips
{
	OFFSET 0.00000 0.00000 0.00000
	CHANNELS 6 Xposition Yposition Zposition Yrotation Zrotation Xrotation 
	JOINT Lumbar
	{
		OFFSET 0 0 0
		CHANNELS 3 Zrotation Xrotation Yrotation
		JOINT Neck
		{
			OFFSET 0.00 0.2701 0.00
			CHANNELS 3 Zrotation Xrotation Yrotation
			End Site
			{
				OFFSET 0.00 0.1379 0.00
			}
		}
		JOINT RightShoulder
		{
			OFFSET 0.0119 0.2289 0.1181
			CHANNELS 3 Zrotation Xrotation Yrotation
			JOINT RightElbow
			{
				OFFSET 0.00 -0.1475 0.00
				CHANNELS 2 Zrotation Yrotation
				JOINT RightWrist
				{
					OFFSET 0.00 -0.1605 0.00
					CHANNELS 2 Zrotation Xrotation
					End Site
					{
						OFFSET 0.0040 -0.1068 0.0006
					}
				}
			}
		}
		JOINT LeftShoulder
		{
			OFFSET 0.0119 0.2289 -0.1181
			CHANNELS 3 Zrotation Xrotation Yrotation
			JOINT LeftElbow
			{
				OFFSET 0.00 -0.1475 0.00
				CHANNELS 2 Zrotation Yrotation
				JOINT LeftWrist
				{
					OFFSET 0.00 -0.1605 0.00
					CHANNELS 2 Zrotation Xrotation
					End Site
					{
						OFFSET 0.0040 -0.1068 -0.0006
					}
				}
			}
		}
	}
	JOINT RightHip
	{
		OFFSET 0.0316 -0.0424 0.0458
		CHANNELS 3 Zrotation Xrotation Yrotation
		JOINT RightKnee
		{
			OFFSET 0.00 -0.2438 0.00
			CHANNELS 1 Zrotation
			JOINT RightAnkle
			{
				OFFSET 0.00 -0.2449 0.00
				CHANNELS 3 Zrotation Xrotation Yrotation
				End Site
				{
					OFFSET 0.1237 -0.0542 0.0051
				}
			}
		}
	}
	JOINT LeftHip
	{
		OFFSET 0.0316 -0.0424 -0.0458
		CHANNELS 3 Zrotation Xrotation Yrotation
		JOINT LeftKnee
		{
			OFFSET 0.00 -0.2438 0.00
			CHANNELS 1 Zrotation
			JOINT LeftAnkle
			{
				OFFSET 0.00 -0.2449 0.00
				CHANNELS 3 Zrotation Xrotation Yrotation
				End Site
				{
					OFFSET 0.1237 -0.0542 -0.0051
				}
			}
		}
	}
}
MOTION
Frames: 22
Frame Time: 0.02
0.91012 0.17313 -0.29958 40.67261 -62.36681 -13.38234 -13.71161 8.09801 8.97271 -28.5349 -0.00045 -2.11994 104.00422 7.63332 53.18095 5.78739 79.42062 -3.97916 2.07888 102.02532 9.32974 -29.00355 18.42838 -81.98184 -10.55486 6.27171 86.71276 -2.0784 -14.37823 -37.71082 -6.32898 -3.12047 -3.73795 88.37373 8.49728 6.81584 -31.27657 -7.08864 1.17743 2.84543
0.91016 0.17317 -0.29952 40.67523 -62.44111 -13.38505 -13.59987 8.08925 8.91503 -28.36015 -0.22626 -2.11994 104.65645 6.75901 28.78118 5.78739 80.26164 -3.14615 1.8942 102.16083 9.14389 -29.09766 18.50048 -82.03564 -10.5643 6.17212 86.80098 -1.94188 -13.98004 -37.65334 -6.35985 -3.15741 -3.75955 88.45671 8.489 6.7908 -31.27022 -7.09292 1.18638 2.84939
0.91021 0.17324 -0.29947 40.69039 -62.52485 -13.40889 -13.48057 8.07521 8.85868 -28.19476 -0.48148 -2.11994 105.30669 5.89726 -2.22478 5.78752 81.83175 -1.91834 1.57656 102.31726 8.95196 -29.23598 18.60715 -82.10772 -10.54257 6.05507 86.89519 -1.7697 -13.49731 -37.58742 -6.39717 -3.20433 -3.78666 88.54109 8.49956 6.81289 -31.24925 -7.10021 1.18941 2.85023
0.91025 0.1733 -0.29942 40.706 -62.59735 -13.41445 -13.37024 8.06214 8.7928 -28.04587 -0.74355 -2.11994 105.94095 5.00728 -29.2953 5.78767 82.97396 -0.88057 1.29517 102.45676 8.77808 -29.36124 18.70599 -82.16855 -10.53313 5.94541 86.97754 -1.62557 -13.07736 -37.5329 -6.4282 -3.24407 -3.80965 88.61437 8.50087 6.82258 -31.23201 -7.10658 1.1935 2.85179
0.91029 0.17336 -0.29937 40.69555 -62.69874 -13.45694 -13.23672 8.05414 8.7644 -27.81297 -0.92379 -2.11994 106.6486 4.19873 -60.30108 5.78781 84.49733 0.20706 1.11917 102.62907 8.53869 -29.46095 18.77493 -82.24179 -10.53009 5.83834 87.09797 -1.43194 -12.55628 -37.44695 -6.47308 -3.29476 -3.83933 88.73169 8.50507 6.794 -31.22698 -7.11117 1.20419 2.85625
0.91035 0.17342 -0.29933 40.74144 -62.74284 -13.42882 -13.14899 8.03485 8.65906 -27.75207 -1.27805 -2.11994 107.20263 3.23117 -84.70237 5.7879 85.42085 1.27732 0.69143 102.73739 8.43417 -29.62161 18.91197 -82.29339 -10.50682 5.72203 87.14123 -1.33161 -12.22391 -37.42317 -6.49105 -3.32525 -3.85653 88.75862 8.50766 6.85389 -31.19341 -7.12003 1.20015 2.85409
0.91043 0.17345 -0.2993 40.95147 -62.62046 -13.18313 -13.19737 7.98345 8.33197 -28.21066 -2.13137 -2.11994 107.32594 1.7932 -88.97718 5.78775 84.37558 2.26817 -0.4048 102.66405 8.71 -29.95504 19.24205 -82.28256 -10.43609 5.57951 86.96303 -1.51174 -12.44819 -37.5865 -6.42949 -3.29559 -3.83658 88.52363 8.50198 7.17772 -31.08032 -7.14124 1.1531 2.83265
0.91051 0.17348 -0.29928 41.21561 -62.44107 -12.8686 -13.29064 7.92125 7.92911 -28.83301 -3.15387 -2.11994 107.29529 0.20244 -86.42354 5.78752 82.7275 3.21529 -1.74777 102.5251 9.1207 -30.34542 19.63653 -82.24909 -10.34604 5.42914 86.70811 -1.78447 -12.86246 -37.81022 -6.3413 -3.24562 -3.80412 88.1996 8.4939 7.58361 -30.93973 -7.1664 1.09212 2.80496
0.9106 0.17351 -0.29926 41.44774 -62.29185 -12.59677 -13.35842 7.86571 7.56655 -29.35024 -4.08187 -2.11994 107.33981 -1.29933 -87.17467 5.78736 81.44659 4.14058 -2.97639 102.41618 9.46585 -30.69883 19.99258 -82.22477 -10.26467 5.2855 86.49302 -2.00567 -13.17995 -37.99773 -6.26773 -3.20624 -3.77827 87.92423 8.48639 7.9319 -30.81451 -7.18889 1.03997 2.78125
0.91068 0.17354 -0.29924 41.71227 -62.12548 -12.27764 -13.44774 7.80311 7.17875 -29.99894 -5.08522 -2.11994 107.36386 -2.88685 -87.31366 5.78709 79.80147 5.25812 -4.22508 102.30812 9.82924 -31.09905 20.3891 -82.20562 -10.18307 5.1278 86.25775 -2.26552 -13.53863 -38.22227 -6.18379 -3.16149 -3.74872 87.61487 8.48169 8.3674 -30.67673 -7.21517 0.97703 2.75259
0.91077 0.17357 -0.29923 41.92119 -61.98054 -12.04027 -13.50251 7.75206 6.82617 -30.41065 -5.97149 -2.11994 107.39213 -4.32788 -87.01006 5.78701 78.75709 5.95669 -5.48111 102.18116 10.1861 -31.4167 20.71549 -82.1704 -10.09721 4.99788 86.04549 -2.46729 -13.85765 -38.38372 -6.11499 -3.12295 -3.72382 87.35448 8.47039 8.64027 -30.55869 -7.23447 0.93339 2.73283
0.91085 0.17365 -0.29923 41.97018 -61.9138 -12.04639 -13.45458 7.74135 6.58394 -30.1433 -6.49191 -2.11994 107.4848 -5.36245 -87.20064 5.7875 79.55868 5.53438 -6.76159 102.02814 10.49695 -31.47561 20.83772 -82.09332 -10.00921 4.94542 85.92141 -2.48641 -14.02151 -38.35985 -6.09494 -3.10688 -3.71505 87.25634 8.44116 8.44463 -30.50266 -7.23344 0.94587 2.73888
0.91092 0.17374 -0.29924 41.96006 -61.86944 -12.13684 -13.36949 7.74166 6.38089 -29.62834 -6.88841 -2.11994 107.58363 -6.23728 -87.13731 5.78816 80.97264 4.68646 -8.02736 101.85604 10.79527 -31.4528 20.88577 -82.00115 -9.91671 4.92148 85.82183 -2.44396 -14.13904 -38.26979 -6.09094 -3.09768 -3.71132 87.20933 8.40566 8.08342 -30.46734 -7.22528 0.97826 2.75411
0.911 0.17383 -0.29924 41.9723 -61.81168 -12.18804 -13.29927 7.73304 6.16335 -29.21727 -7.34266 -2.11994 107.67055 -7.16259 -87.12978 5.78872 82.07909 4.01322 -9.25795 101.68639 11.09652 -31.4776 20.96446 -81.91799 -9.82339 4.8853 85.70736 -2.42968 -14.27782 -38.20766 -6.07924 -3.08505 -3.70509 87.13582 8.37267 7.79578 -30.42217 -7.22037 1.00214 2.76543
0.91108 0.17391 -0.29926 42.00508 -61.76624 -12.24094 -13.2399 7.74027 5.92876 -28.85057 -7.79811 -2.11994 107.79309 -8.18843 -87.14925 5.78939 83.29634 3.41279 -10.67752 101.54209 11.41568 -31.45839 21.05932 -81.82561 -9.74198 4.8458 85.6068 -2.41798 -14.42284 -38.15664 -6.06827 -3.07295 -3.69929 87.07404 8.33961 7.51291 -30.37806 -7.21544 1.02385 2.77568
0.91115 0.17401 -0.29925 41.98081 -61.70033 -12.311 -13.14755 7.71766 5.74046 -28.32777 -8.21779 -2.11994 107.84176 -8.96263 -87.12851 5.78986 84.4259 2.5665 -11.69231 101.33962 11.69087 -31.51296 21.10088 -81.7483 -9.63431 4.82011 85.48317 -2.38486 -14.54076 -38.06607 -6.06003 -3.06173 -3.69401 86.99979 8.30702 7.18623 -30.33678 -7.20898 1.05424 2.79006
0.91118 0.17416 -0.29917 41.80911 -61.58005 -12.40986 -12.98143 7.60634 5.66691 -27.45656 -8.58164 -2.11994 107.71203 -9.10075 -87.14667 5.78973 85.24599 1.09057 -11.62724 100.99589 11.86317 -31.77007 21.02323 -81.72372 -9.46127 4.82538 85.29796 -2.30945 -14.60013 -37.88119 -6.05487 -3.05061 -3.68864 86.89056 8.26133 6.72049 -30.30039 -7.19841 1.11037 2.81676
0.9112 0.17434 -0.29906 41.58269 -61.43722 -12.52295 -12.78171 7.46536 5.63967 -26.43151 -8.91028 -2.11994 107.50322 -8.98731 -87.12582 5.7894 85.94019 -0.60752 -11.14632 100.5919 11.98788 -32.10682 20.89263 -81.71355 -9.26119 4.84356 85.0875 -2.21396 -14.63217 -37.65874 -6.05214 -3.04033 -3.68374 86.76523 8.21885 6.22537 -30.26589 -7.18676 1.17354 2.84681
0.91123 0.17451 -0.29897 41.38376 -61.30009 -12.62863 -12.59173 7.34034 5.59383 -25.46205 -9.24627 -2.11994 107.31391 -8.97452 -87.13015 5.78916 86.64598 -2.16791 -10.83379 100.20612 12.12379 -32.42212 20.77913 -81.69204 -9.06931 4.85609 84.88377 -2.12589 -14.67223 -37.45404 -6.04881 -3.0302 -3.6789 86.63989 8.18595 5.78366 -30.22921 -7.17674 1.22898 2.87318
0.91125 0.17468 -0.29887 41.17126 -61.18313 -12.74153 -12.42364 7.20508 5.53881 -24.54596 -9.61575 -2.11994 107.19508 -9.01138 -87.19058 5.7889 87.58195 -3.89888 -10.6134 99.85819 12.30419 -32.67688 20.69129 -81.69025 -8.89348 4.86901 84.70119 -2.04242 -14.72844 -37.24418 -6.04394 -3.01813 -3.6731 86.54723 8.10815 5.17339 -30.19871 -7.16196 1.30354 2.90862
0.91127 0.17485 -0.29878 40.9754 -61.01826 -12.84124 -12.20269 7.08413 5.51366 -23.4836 -9.90723 -2.11994 106.90941 -8.89045 -87.00274 5.78866 87.97992 -5.32099 -10.09553 99.41759 12.37975 -33.07203 20.5399 -81.65097 -8.67914 4.88345 84.46784 -1.94604 -14.74628 -37.03704 -6.0426 -3.01015 -3.66932 86.38199 8.12231 4.9015 -30.15564 -7.15659 1.34053 2.92626
0.91133 0.17501 -0.2987 40.8334 -60.72874 -12.90464 -11.84242 7.00845 5.55772 -22.07123 -10.00462 -2.11994 106.19318 -8.36485 -87.29604 5.7884 87.11242 -5.84132 -8.92343 98.73485 12.18583 -33.88512 20.21298 -81.50551 -8.35465 4.90206 84.10406 -1.8133 -14.65402 -36.84643 -6.05085 -3.01383 -3.67128 86.0206 8.41065 5.64061 -30.07643 -7.18039 1.26487 2.89036
